<svg xmlns="http://www.w3.org/2000/svg" xml:space="preserve" width="1024" height="1024" fill-rule="evenodd" clip-rule="evenodd" image-rendering="optimizeQuality" shape-rendering="geometricPrecision" text-rendering="geometricPrecision"><path fill="#fff" d="M383 495c4 15 9 29 16 42 8 15 18 29 30 40 13 13 29 23 45 29 12 5 25 7 38 7h8c16-2 32-6 46-15 11-5 20-12 29-21 11-11 22-25 30-40 7-13 12-27 16-42 7-3 14-12 18-23 2-5 4-11 5-17 2-10 1-20-1-27-2-11-8-19-15-21h-1 1v-55l39-20-19-41v-1l3-10 15-56 3-11-40 10-45 12-11 3-4-10-12-28-9-21-29 23-8 6-18 14-19-12-13-8-32-21-7 18-15 36-5 12-14-3-20-4-11-3-29-6 21 50 5 11v1l-47 35 49 23v56c-13 3-20 24-16 48 1 7 3 13 5 18 4 11 11 19 18 22zm129 188c-5 0-9-5-9-9 0-5 4-9 9-9s9 4 9 9c0 4-4 9-9 9zm-9 34c0-5 3-8 8-9h1c5 0 9 4 9 9 0 4-2 7-5 8-1 1-3 1-4 1-5 0-9-4-9-9zm0 38c0-4 4-9 9-9s9 5 9 9c0 5-4 9-9 9s-9-4-9-9zm-23-129c-34-7-61-24-74-46-32 6-60 14-79 25-57 33-77 160-84 227-1 16-2 29-2 36-1 4-1 6-1 6h544s0-2-1-6c0-4 0-10-1-18-5-59-23-209-86-245-19-11-46-19-78-25-11 18-32 33-57 41-15 5-32 8-49 8-11 0-22-1-32-3zm97 191v-78h95v78l-46 20-49-20z"/></svg>