<svg xmlns="http://www.w3.org/2000/svg" xml:space="preserve" width="1024" height="1024" fill-rule="evenodd" clip-rule="evenodd" image-rendering="optimizeQuality" shape-rendering="geometricPrecision" text-rendering="geometricPrecision"><path fill="#fff" d="m601 424-28-146c1 0 1 1 2 1 27 0 48-22 48-49s-21-49-48-49-49 22-49 49c0 14 7 27 16 36L427 414l174 10zM489 848c7 5 16 8 25 8 8 0 16-2 22-6 14 15 35 24 59 24 41 0 34-30 34-64 0-33 7-58-34-58-24 0-45 9-59 24-6-4-14-6-22-6-9 0-18 2-25 7-13-15-35-25-60-25-41 0-34 25-34 58 0 34-7 64 34 64 25 0 47-10 60-26zm108-67c6 0 11 5 11 11s-5 10-11 10-10-4-10-10 4-11 10-11zm-19 60c6 0 11 4 11 10s-5 11-11 11-11-5-11-11 5-10 11-10zm25 3c6 0 10 4 10 10s-4 11-10 11-11-5-11-11 5-10 11-10zm12-36c6 0 11 4 11 10s-5 11-11 11-11-5-11-11 5-10 11-10zm-6-50c6 0 11 5 11 11s-5 11-11 11-11-5-11-11 5-11 11-11zm-23 51c6 0 11 5 11 10 0 6-5 11-11 11s-11-5-11-11c0-5 5-10 11-10zm-31-21c6 0 11 5 11 11s-5 11-11 11-11-5-11-11 5-11 11-11zm18-28c6 0 11 5 11 11s-5 11-11 11-11-5-11-11 5-11 11-11zm-50 61c6 0 11 5 11 11s-5 11-11 11-10-5-10-11 4-11 10-11zm31 5c6 0 11 5 11 11s-5 11-11 11-11-5-11-11 5-11 11-11zm-66-8c6 0 11 5 11 11s-5 11-11 11-10-5-10-11 4-11 10-11zm-76 21c6 0 11 4 11 10s-5 11-11 11-11-5-11-11 5-10 11-10zm30-7c6 0 11 5 11 11s-5 11-11 11-11-5-11-11 5-11 11-11zm20-28c6 0 10 4 10 10s-4 11-10 11-11-5-11-11 5-10 11-10zm23-21c6 0 11 5 11 11s-5 11-11 11-11-5-11-11 5-11 11-11zm38 3c6 0 11 5 11 11s-5 11-11 11-10-5-10-11 4-11 10-11zm-97 16c6 0 10 5 10 11s-4 11-10 11-11-5-11-11 5-11 11-11zm26-28c6 0 11 5 11 10 0 6-5 11-11 11s-10-5-10-11c0-5 4-10 10-10zm-30-9c6 0 11 5 11 11s-5 11-11 11c-5 0-10-5-10-11s5-11 10-11zm183-224c-1-21-4-37-9-37-5-1-10 15-11 37-21 0-37 4-38 9 0 4 16 9 37 10 1 22 5 38 9 38 5 0 10-16 11-37 21-1 37-4 38-9 0-5-16-10-37-11zm-180 53c5 0 10-16 11-37 21-1 37-4 37-9 1-5-15-10-36-11-1-21-5-37-10-37-4-1-9 15-10 36-22 1-38 5-38 10 0 4 16 9 37 10 1 22 4 38 9 38zm160 61c-31 11-47 32-78 32-31-1-46-23-76-36-31-13-54 16-38 42 19 32 44 68 110 70s97-34 118-64c17-26-5-56-36-44zm8 41c-2 2-32 36-85 35-54-2-82-37-84-39-2-3-1-7 2-10 3-2 7-1 9 2 1 0 26 32 73 33s74-30 74-30c3-3 7-3 10-1 3 3 3 7 1 10zm-135-81c-1 28 22 43 50 44s51-14 52-42-22-44-50-44c-28-1-52 13-52 42zm-100-65c1-42 20-79 50-105-13-17-33-28-56-29-19 0-37 7-50 19-10-11-25-18-41-18-33-1-61 25-61 59-1 24 13 46 34 56-3 8-5 18-6 28 0 32 20 60 48 72v3c-1 35 27 64 62 65h5c-7-20-11-40-11-62 1-31 10-60 26-84v-4zm466-57c2-33-24-61-57-63-16-1-31 5-42 15-13-13-30-21-49-22-23-1-45 9-58 27 28 27 46 65 45 108v3c14 25 22 54 21 85 0 22-5 42-13 61 35 1 64-26 66-60v-4c29-9 51-36 53-68 0-10-1-20-4-28 21-9 37-29 38-54z"/></svg>