<svg xmlns="http://www.w3.org/2000/svg" xml:space="preserve" width="1024" height="1024" fill-rule="evenodd" clip-rule="evenodd" image-rendering="optimizeQuality" shape-rendering="geometricPrecision" text-rendering="geometricPrecision"><path fill="#fff" d="M248 874h528s-20-185-93-222c-6-3-13-6-21-9l7-23s-35-32-49-25c-7 3-14 17-20 31-1 1-1 2-1 4-1 11-3 22-5 34-12 66-37 140-83 179-43-31-70-115-82-189-2-8-3-16-4-23 0 0 0-1-1-1-7-18-17-40-25-44-14-7-49 25-49 25l10 33c-7 2-14 5-19 8-73 37-93 222-93 222zm156-83c-1 0-2 1-3 1l-8-14 8-14h2c3 0 6-3 6-6 0-4-3-6-6-6s-4 1-6 2h-18l-8-14c1-1 1-2 1-4 0-3-3-6-6-6-4 0-7 3-7 6 0 2 1 3 1 4l-8 14h-19c-1-2-3-3-5-3-4 0-6 3-7 6 0 4 3 7 7 7 1 0 2-1 3-1l8 14-8 14h-2c-3 0-6 3-6 6 0 4 3 6 6 6 2 0 4-1 5-2h18l9 14c-1 1-1 2-1 3 0 3 3 6 6 6 4 0 7-3 7-6 0-1-1-2-1-3l8-14h18c1 2 4 3 6 3 3 0 6-3 6-6 0-4-3-7-6-7zm111-450c43 0 129-6 129-6s-2-148-48-151c-61-3-57 27-88 27-29 0-26-40-87-27-33 8-41 151-41 151s91 6 135 6zm-11 63c35 0 89-4 134-9 49-4 88-9 88-9 4 0 7-3 7-7v-32c0-4-3-7-7-7 0 0-147 7-219 7-70 0-209-7-209-7-4 0-7 3-7 7v32c0 4 3 7 7 7 0 0 40 5 88 10 40 4 86 8 118 8zm74 219c25-19 44-50 54-86 9-4 18-18 21-37 3-22-3-41-15-44v-53c-45 5-99 9-134 9-32 0-78-4-118-8v52c-12 3-18 22-15 44 3 19 12 33 21 37 10 36 29 67 54 86 2 1 3 3 5 4 18 12 39 20 61 20s43-8 61-20c2-1 3-3 5-4zm60-167h-1 1zm-12 4c-3 11-9 22-12 30-1 3-2 6-5 8-18 16-66 10-76-4-4-5-8-14-11-23h-22c-3 9-7 18-11 23-9 14-55 20-74 6-3-3-6-6-7-10-3-8-10-20-12-32-1-4-1-9 0-13 4-16 90 5 101 4 6 0 7 5 6 13h16c-1-8 0-13 6-13 11 1 97-20 101-4 1 5 1 10 0 15zm-88 242c12-4 21-43 9-41-10 1-59-1-69 0-6 0 3 39 7 44 5 7 45 0 53-3zm-26 128c12 1 35-63 37-67 5-5-6-51-13-52-10-1-33 7-43 5-11-2-23 43-17 54 3 8 25 59 36 60z"/></svg>