<svg xmlns="http://www.w3.org/2000/svg" xml:space="preserve" width="1024" height="1024" fill-rule="evenodd" clip-rule="evenodd" image-rendering="optimizeQuality" shape-rendering="geometricPrecision" text-rendering="geometricPrecision"><path fill="#fff" d="M670 673c-17-5-37-9-59-12-14 49-44 104-100 133-50-22-82-81-97-133-28 4-53 9-72 15-2 1-4 2-5 2-2 13 2 25 8 36l1 2c5-1 11-2 17-1 15 0 32 8 43 19 1 2 2 5 1 8l-3 3-1 1h-2l-6-3h-1l-1-1h-1v-1l-1-1-2-1-2-1-1-1h-1l-1-1h-2l-2-1-1-1h-2l-1-1h-3l-1-1h-6l-1-1h-7v1h-6l-3 1h-1l-3 1h-2l-1 1h-1v1h-2l-1 1h-1l-1 1h-1v1h-1l-2 1-1 1h-1v1l-3 2-1 1-1 1-1 1-1 1v1l-1 1h-1l-1 1v1l-1 1-1 1v1l-1 1-3 6-1 1-1 2c-1 3-2 5-4 7-2 0-4 1-5 0-4-1-6-4-5-9 0-5 6-16 10-22 7-9 15-17 26-21 2-1 3-2 5-2v-1c-7-11-11-23-10-35-73 36-93 192-93 192h552s-21-162-97-194c-4-2-8-3-13-5v7c1 2 2 5 3 7 1 4 4 8 6 13 3 4 5 8 7 12 8 18 9 34 4 48s-15 27-28 38v2h1v5h1v1c0 11-9 20-19 20h-1c-10 0-19-9-19-20 0-10 9-19 19-19h2v1h5v1h2v1h2v1h1v1h1c12-11 21-22 25-34s4-26-3-42c-2-5-5-9-7-13-3-4-5-8-7-13-1-3-2-6-3-10v-9zm-57-219c-66 3-131-58-135-72-14 29-30 45-51 65-5 5-11 8-16 13-1 1-2 3-3 5-5 15-8 30-7 42 7 68 18 107 35 131 6 8 12 14 19 19 16 12 35 16 57 19h27c12-2 24-8 34-18 5-6 10-12 15-20 15-25 27-64 36-125 0-33-3-59-11-59zM353 644h60c-1-2-1-3-2-4-12-39-28-143-8-178 1-2 2-4 4-5 3-3 6-6 9-8 2-2 5-3 7-5 21-21 37-37 50-64l6-13 4 13c0 4 6 10 8 12 7 7 14 14 22 20 20 15 43 28 68 34 10 2 21 4 31 3 10 0 13 14 14 21 3 14 3 29 3 43 0 13 0 27-1 40-1 16-2 33-4 49-2 12-3 26-6 37-1 2-1 3-2 5h51c4-17 7-35 10-52 6-40 10-81 8-121-2-34-8-71-23-101-13-26-55-38-82-43-23-5-49-8-72-8-26 0-52 2-77 8-40 9-69 29-87 66-22 45-1 194 9 251zm25-426 29 104h23c22-6 48-8 78-8 12 0 42 2 73 8h35l30-104c-90-48-179-50-268 0zm99 51v-32h23v-23h32v23h24v32h-24v23h-32v-23h-23zm175 527c-7 0-12 6-12 12 0 7 5 13 12 13s13-6 13-13c0-3-2-7-4-9-3-2-6-3-9-3zm-8 12c0-4 4-8 8-8 3 0 5 1 6 2 2 2 3 4 3 6 0 5-4 9-9 9-4 0-8-4-8-9zm-320 20c1-1 2-1 4-1 5 0 9 4 9 10 0 5-4 9-9 9-6 0-10-4-10-9v-3c-7-8-11-18-14-28h-1c-1-4-2-9-3-14s-1-10-1-14v-1h1l7 1h1v12c1 5 1 9 2 13 3 9 8 18 14 25zm101-12v3c0 5-4 10-9 10-6 0-10-5-10-10s4-10 10-10c0 0 1 1 2 1 0-2 1-3 1-5 0-1 1-2 1-4 1-9 0-19-2-28-2-5-4-8-6-12 0 0-5-9-6-10l-1-1h1l5-4 1-1 1 1c2 3 5 7 7 11 2 5 4 10 5 14 3 11 5 21 3 32 0 2 0 4-1 6 0 2-1 4-2 6v1z"/></svg>