<svg xmlns="http://www.w3.org/2000/svg" xml:space="preserve" width="1024" height="1024" fill-rule="evenodd" clip-rule="evenodd" image-rendering="optimizeQuality" shape-rendering="geometricPrecision" text-rendering="geometricPrecision"><path fill="#fff" d="M625 376c-2-12 1-24 3-36 1-14 1-26-4-40-4-12-9-27-17-37-5-6-11-10-18-13-4-1-8-3-12-2-3 0-5 1-8 2-4 2-8 3-12 4-15 5-30 6-45 6s-30-1-45-6c-4-1-8-2-12-4-3-1-5-2-8-2-4-1-8 1-12 2-7 3-13 7-18 13-8 10-13 25-17 37-5 14-5 26-4 40 2 12 5 24 3 36 0 2-1 4-2 7l-6 15c-2 6-4 13-5 20-1 13-2 26-7 39-1 2-3 4-6 5-3 0-6-1-7-3h-1c-5-4-6-11-7-18-1-4-1-8-1-12-1-10-2-22-6-31 0-1-1-3-1-4-6 12-1 38 2 49 10 32 24 32 26 35 2 2 13 42 34 69 3 4 6 7 9 11 7 9 24 21 35 27 18 10 37 15 56 15s38-5 56-15c11-6 28-18 35-27 3-4 6-7 9-11 21-27 32-67 34-69 2-3 16-3 26-35 3-11 8-37 2-49 0 1-1 3-1 4-4 9-5 21-6 31 0 4 0 8-1 12-1 7-2 14-7 18h-1c-1 2-4 3-7 3-3-1-5-3-6-5-5-13-6-26-7-39-1-7-3-14-5-20l-6-15c-1-3-2-5-2-7zM512 181c46 0 52 8 91 23 29 12 44 20 59 56 12 29 18 64 16 101-2 32-14 13-19 67 0 4 0 8-1 12-2 13-4 12-5 14-5-12-6-25-8-37-2-18-5-23-11-37-7-21 11-45-3-83-9-27-14-44-39-54s-24 9-80 9-55-19-80-9-30 27-39 54c-14 38 4 62-3 83-6 14-9 19-11 37-2 12-3 25-8 37-1-2-3-1-5-14-1-4-1-8-1-12-5-54-17-35-19-67-2-37 4-72 16-101 15-36 30-44 59-56 39-15 45-23 91-23zm-20 693H203c-1-5 12-121 12-128 5-37 7-86 28-115 3-4 4-5 8-9 2-2 18-25 95-47 10-3 18-5 27-10 5-2 19-10 23-12 16 55 30 109 46 163 8 27 16 53 25 80l25 78zM306 719c-6-22 11-25 11-25s-9 7-5 23c5 25-4 26-4 26s1-10-2-24zm20-21c6-22-11-25-11-25s9 6 6 23c-6 25 3 26 3 26s-1-10 2-24zm-13 76c6 0 10 5 10 10 0 2-1 5-2 6-2 3-5 4-8 4s-5-1-7-4c-2-1-3-4-3-6 0-5 5-10 10-10zm18 26c3-2 5-6 5-10v-18c0-7-6-13-13-13h-19c-7 0-13 6-13 13v18c0 4 2 8 5 10v17c0 6 5 10 10 10h14c6 0 11-4 11-10v-17zm3 1v18c0 7-5 13-12 13h-2v15h-13v-15h-2c-7 0-12-6-12-13v-18c-3-3-5-7-5-11v-20c0-8 6-14 14-14h8v-7h7v7h7c8 0 15 6 15 14v20c0 4-2 8-5 10v1zm213-15c3-8 6-18 9-26 3-12 24-75 25-82-3-2-3-3-5-5-8-10-17-19-26-28-2-2-3-4-5-6s-4-3-6-5l-9 13c-5 7-6 8-4 18l21 121zM442 680c5 10 12 40 16 53 6 18 11 35 17 53 8-40 16-81 24-121 3-11 2-9-4-17-3-4-6-9-9-14-7 7-15 16-22 22-4 4-21 21-22 24zm90 194h289c1-5-12-121-12-128-5-37-7-86-28-115-3-4-4-5-8-9-2-2-18-25-95-47-10-3-18-5-27-10-5-2-19-10-23-12-16 55-30 109-46 163-8 27-16 53-25 79l-25 79zm171-113c1-5 5-9 3-20-1-6-5-13-7-16l-6-6c-1-3-3-4-4-7-3-4-6-13-10-15-4 5 1 6-6 18-7 11-12 21-5 35 3 7 6 8 11 12 0 8-11 31-15 35 1-8 0-13-4-19-2-3-2-3-4-5s-5-4-9-7c-25-14-10 18-6 23 5 6 9 10 18 15l-10 12c-2 1-2 1-3 4 7 1 67 1 76 0l1-24c-11-1-29-1-38 3-6 2-9 4-12 8-6 4-8 4-16 5l6-7c2-3 4-5 6-8 8-12 11-8 13-13h-6l6-14c1-4 1-5 2-5 2-2 13 2 21-2 10-5 16-17 16-29 0-15 5-9 7-15-10-11-17-5-31-6 6-2 11-1 14-7-4-7-25-12-20 4 1 3 5 8 8 9l3 3c16 16 5 36 1 39zM553 495c44-1 43 14 43 14s-17-5-41-4c-39 3-39-27-39-27s8 18 37 17zm-125 14s-1-15 43-14c29 1 37-17 37-17s0 30-39 27c-24-1-41 4-41 4z"/></svg>