<svg xmlns="http://www.w3.org/2000/svg" xml:space="preserve" width="1024" height="1024" fill-rule="evenodd" clip-rule="evenodd" image-rendering="optimizeQuality" shape-rendering="geometricPrecision" text-rendering="geometricPrecision"><path fill="#fff" d="M468 393zm44-153c34 0 66 9 93 24-1-12-5-23-11-34-16-29-47-49-82-49s-66 20-82 49c-6 11-10 22-11 34 27-15 59-24 93-24zm-44 514c0 11 8 19 19 19 3 0 6-1 9-2 3 5 9 9 16 9s13-4 16-9c3 1 6 2 9 2 11 0 19-8 19-19 11 0 19-8 19-19 0-3-1-6-2-9 5-3 8-9 8-16 0-5-1-9-4-12-4-4-9-7-15-7-2 0-4 1-6 1v18c0 25-20 44-44 44s-44-19-44-44v-18c-2 0-4-1-6-1-6 0-11 3-14 7-3 3-5 7-5 12 0 7 3 13 8 16-1 3-2 6-2 9 0 11 9 19 19 19zM356 430v22c-18 8-30 31-30 60 0 31 15 56 34 61 18 68 80 118 153 118 74 0 135-50 153-118 19-6 33-31 33-61 0-28-12-51-29-59v-10H538c-7 0-15-1-22-3-19-6-36-16-48-32-13 13-31 20-49 20h-63v2zm132 65h50c1-11 7-22 14-29 10-10 22-15 37-15 14 0 27 5 36 15 9 9 15 22 15 36s-6 27-15 37c-9 9-22 15-36 15-15 0-27-6-37-15-7-8-13-18-14-30h-50c-1 12-7 22-14 30-10 9-22 15-37 15-14 0-27-6-36-15-9-10-15-23-15-37s6-27 15-36c9-10 22-15 36-15 15 0 27 5 37 15 7 7 13 18 14 29zm-14 7c0-10-4-19-11-26-6-6-15-11-26-11-10 0-19 5-26 11-6 7-10 16-10 26s4 19 10 26c7 7 16 11 26 11 11 0 20-4 26-11 7-7 11-16 11-26zm151 0c0-10-4-19-10-26-7-6-16-11-26-11-11 0-20 5-26 11-7 7-11 16-11 26s4 19 11 26c6 7 15 11 26 11 10 0 19-4 26-11 6-7 10-16 10-26zm207 1 49-100v-1c0-1-1-1-1-2l-21-10c-1-1-2 0-3 1l-48 99c4 1 9 2 13 4 5 2 8 5 11 9zm-16 2c-5-2-9-3-14-2-4 0-7 1-10 3-1 0-1 1-2 1-3 2-6 6-8 10l-83 170c-1 1 0 3 1 3l34 17 8 4h2s1 0 1-1l83-171c3-6 3-13 1-19-1-2-2-4-2-5-3-4-7-8-11-10zM570 874h83l4-9 1-1 8-16 4 2c9 5 20 4 28-2 4-2 7-6 10-10 3-7 3-14 1-21-3-8-8-13-14-17l-5-2 23-48 16-32-35-17c-7-3-10-12-6-19l83-171c3-5 7-10 12-14 5-3 11-6 16-6l64-131v-1l-1-1-31-16c-1 0-2 0-3 1L656 698l-65 133-11 24-10 19zm126-54c2 4 2 9 0 12-3 7-14 10-22 6l-3-1 4-9 3 3c2 3 7 4 11 1 3-3 3-7 1-11l-7-8 1-4 3 2c4 2 7 5 9 9zM374 698zm88 62c-11-3-19-13-19-25 0-2 0-5 1-7-5-5-8-11-8-18 0-4 2-9 4-12h-66c-23 0-44 12-55 31-2 3-3 7-5 10l-43 135h286l86-176h-59c3 3 4 8 4 12 0 7-3 13-8 18 1 2 1 5 1 7 0 12-8 22-19 25-3 11-13 20-25 20-2 0-5-1-7-1-5 4-11 7-18 7s-13-3-18-7c-2 0-5 1-7 1-12 0-22-9-25-20zm51 57c-5 0-9-4-9-9s4-9 9-9 9 4 9 9-4 9-9 9zm-9 36c0-5 3-8 8-9h1c5 0 9 4 9 9 0 4-2 7-5 9-1 0-3 1-4 1-5 0-9-5-9-10zm251 21-36-108-13 27c7 5 12 12 14 20 4 10 3 21-2 30-2 6-7 12-13 15-10 7-22 9-34 6l-2 5-1 1-2 4h89zM514 360c11 22 27 32 52 32h76c5 0 9 5 9 10s-4 10-9 10h-76c-32 0-55-15-69-44-2-5 0-11 4-13 5-2 11 0 13 5zm164 54c0-59-31-113-77-143-25-16-53-25-84-26h-5c-33 0-63 9-89 26-46 29-76 80-77 139 0 6 6 11 12 11h60c20 0 39-10 50-28 12 25 37 36 51 41 6 2 12 3 18 3h129c7 0 12-6 12-12v-11z"/></svg>