<svg xmlns="http://www.w3.org/2000/svg" xml:space="preserve" width="1024" height="1024" fill-rule="evenodd" clip-rule="evenodd" image-rendering="optimizeQuality" shape-rendering="geometricPrecision" text-rendering="geometricPrecision"><path fill="#fff" d="M248 874h528s-20-185-93-222c-6-3-13-6-21-9l7-23s-35-32-49-25c-7 3-14 17-20 31-1 1-1 2-1 4-1 11-3 22-5 34-12 66-37 140-83 179-43-31-70-115-82-189-2-8-3-16-4-23 0 0 0-1-1-1-7-18-17-40-25-44-14-7-49 25-49 25l10 33c-7 2-14 5-19 8-73 37-93 222-93 222zm213-34-35-35c5-6 8-15 8-24 0-21-17-39-39-39-21 0-39 18-39 39 0 22 18 39 39 39 7 0 14-2 19-5l36 36c2 2 4 2 6 2s4 0 5-2c3-3 3-8 0-11zm-86-38v-1c-1 0-2-1-2-2l-1-1v-1c-1 0-1 0-1-1-2-3-4-7-4-10v-6 1c0-4 0-8 2-11 1-2 2-4 3-5 5-8 14-13 23-13 10 0 18 5 23 12 1 0 1 1 1 1l1 1v1c1 1 1 2 2 3 1 3 2 7 2 11 0 5-1 10-4 15-1 1-1 2-2 3l-2 2-2 2c-5 4-12 7-19 7s-13-3-18-7c-1 0-1-1-2-1zm19 44c-2-1-4-3-6-4-7-5-12-9-18-8-7 2-18 12-20 15-2 1-2 4 0 5 1 1 2 1 3 1s2 0 3-1c5-5 12-11 15-12 3 0 7 3 12 6 2 2 4 3 7 5 2 1 4 0 5-1 1-2 1-5-1-6zm-32-32c-5 4-12 9-22 16-2 1-4 3-5 4-2 1-2 3-1 5 1 1 2 2 3 2s2 0 2-1c2-1 3-2 6-4 5-4 17-13 24-17-2-1-5-3-7-5zm45 13c-1-1-2-1-3-2-3 1-7 2-10 2h-3c5 3 10 6 14 7 2 1 4 0 5-2 0-2-1-5-3-5zm-52-22c-1-2-2-5-3-7-2 1-3 2-4 2-10 7-21 14-26 15-2 1-3 3-3 5 1 2 2 3 4 3h1c6-2 17-9 28-16 1-1 2-1 3-2zm-44-21c5-2 23-8 42-21 5-11 15-20 27-24 3-3 5-5 7-8 1-2 1-4-1-6-2-1-4-1-5 1-23 32-65 48-73 51-2 1-3 3-3 5 1 2 2 2 4 2h2zm66-95c-15 1-27 10-36 20-2 2-3 4-5 6-2 3-5 5-7 8-3 2-5 4-8 6-4 1-7 3-10 5-2 1-3 1-4 1-2 1-3 3-3 5 1 2 3 4 5 3 4-1 8-3 11-5s7-4 9-6c6-4 10-9 15-14 2-2 3-4 5-6 1-1 3-2 4-3 0-1 1-1 1-2 1 0 1 0 1-1h1l9-6 9-3h3c2-1 3-2 3-4s-1-5-3-4zm-28 93v-5c-11 7-25 15-37 20-2 1-2 3-2 5 1 2 2 3 4 3 1 0 1 0 2-1 10-4 22-11 33-17v-5zm-41-18c13-4 25-11 25-11 17-11 32-27 32-27 7-7 16-14 23-12 5 1 8 4 9 7 2 4 2 9 0 15-1 0-1 1-1 1 3 0 5 1 8 1 3-7 3-15 0-20-2-6-7-10-13-11-10-3-21 2-32 14 0 0-14 15-30 25 0 0-11 7-23 10-2 1-4 3-3 5 0 2 3 3 5 3zm-2-41c1 1 2 1 6-2 1-1 4-3 6-6l1-1c8-11 26-36 53-34 22 1 38 18 46 48v2c1 5 3 11 6 13 1 1 2 1 2 1 2 0 3 0 4-1 1-2 0-5-1-6s-2-5-3-9c-1-1-1-1-1-2-1-4-4-17-12-29-10-15-23-24-40-25-31-2-52 26-61 37v1c-3 3-6 5-7 6h-1c-1 1-1 3-1 4 0 2 1 3 3 3zm209-382c43 0 129-6 129-6s-2-148-48-151c-61-3-57 27-88 27-29 0-26-40-87-27-33 8-41 151-41 151s91 6 135 6zm-11 63c35 0 89-4 134-9 49-4 88-9 88-9 4 0 7-3 7-7v-32c0-4-3-7-7-7 0 0-147 7-219 7-70 0-209-7-209-7-4 0-7 3-7 7v32c0 4 3 7 7 7 0 0 40 5 88 10 40 4 86 8 118 8zm74 219c25-19 44-50 54-86 9-4 18-18 21-37 3-22-3-41-15-44v-53c-45 5-99 9-134 9-32 0-78-4-118-8v52c-12 3-18 22-15 44 3 19 12 33 21 37 10 36 29 67 54 86 2 1 3 3 5 4 18 12 39 20 61 20s43-8 61-20c2-1 3-3 5-4zm60-167h-1 1zM538 702c12-4 21-43 9-41-10 1-59-1-69 0-6 0 3 39 7 44 5 7 45 0 53-3zm-26 128c12 1 35-63 37-67 5-5-6-51-13-52-10-1-33 7-43 5-11-2-23 43-17 54 3 8 25 59 36 60z"/></svg>