<svg xmlns="http://www.w3.org/2000/svg" xml:space="preserve" width="1024" height="1024" fill-rule="evenodd" clip-rule="evenodd" image-rendering="optimizeQuality" shape-rendering="geometricPrecision" text-rendering="geometricPrecision"><path fill="#fff" d="M387 495c4 15 9 29 16 42 8 15 18 29 30 40 13 13 28 23 45 29 12 5 25 7 38 7h7c17-2 33-6 47-15 10-5 20-12 29-21 11-11 21-25 30-40 6-13 12-27 16-42 7-3 14-12 18-23 2-5 4-11 5-17 1-8 1-16 0-23l-5-5c0-1-1-2-2-4-2-4-3-8-3-13l-6-3h-1 1v-15c-4-2-7-6-9-10-7-11-4-24 2-35h-1c-3 0-6 0-9-1-11-2-17-8-21-18-1-1-1-3-2-4-22-15-43-30-62-48-11-10-20-13-34-13-15 0-23 3-34 13-20 18-41 33-63 48 0 1-1 3-1 4-4 10-11 16-21 18-3 1-7 1-10 1 5 11 8 24 2 35-3 4-6 8-10 10v15c-2 1-3 2-5 3 0 5-1 9-4 13 0 2-1 3-2 4-1 2-3 3-4 5-2 7-2 15 0 23 1 7 2 13 5 18 4 11 11 19 18 22zm31 97-25 282h245l-25-282c-12 13-29 23-49 29-14 5-31 8-48 8-11 0-22-1-32-3-28-6-51-18-66-34zm82 80-31 88 11 16 16-7 21 10 15-11 18 10 12-18-30-89c3-4 5-9 5-14 0-13-10-22-22-22s-22 9-22 22c0 6 3 11 7 15zm301 202c-17-113-52-283-102-283l-72-11 52 294h122zm-448 0 52-294-72 10c-50 0-96 171-110 284h130zm23-531c10-7 26 4 35-18 1-2 2-3 2-6 23-14 44-30 64-48 13-11 22-15 39-15 16 0 26 4 38 15 21 18 41 34 64 48 1 3 2 4 2 6 9 22 25 11 36 18-9 12-13 26-7 36 4 7 12 11 22 12-7 11-8 21-4 29 9 17 40 17 70 1 29-16 45-42 36-59-4-7-12-11-22-12 6-11 8-22 3-30-5-10-18-14-33-13 9-12 13-24 8-34-8-15-32-20-57-11-37-50-95-81-156-81-62 0-120 31-156 81-26-9-50-4-57 11-5 10-2 22 8 34-16-1-28 3-34 13-4 8-3 19 3 30-10 1-18 5-21 12-10 17 7 43 36 59s60 16 69-1c5-8 3-18-3-29 10-1 18-5 22-12 5-10 2-24-7-36z"/></svg>