<svg xmlns="http://www.w3.org/2000/svg" xml:space="preserve" width="1024" height="1024" fill-rule="evenodd" clip-rule="evenodd" image-rendering="optimizeQuality" shape-rendering="geometricPrecision" text-rendering="geometricPrecision"><path fill="#AEA9A9" d="M655 497c-5-7-8-17-13-24-8-10-21-15-32-19 10-2 19-10 24-19-8 1-20-1-19-9 0-3 3-6 5-8 12-13 20-29 22-46-27 3-53 0-80 4-2-7-8-12-15-12-6-1-13 4-15 10-9-1-18-2-23-9-2-4-3-9-7-11l-10-11c-13 0-21 15-27 27-7 13-16 25-26 35-2 2-5 4-8 4s-6-3-8-6l-30-36c-5 36 22 73 10 108-26 3-52 7-78 12 8 12 24 15 37 20 11 4 22 10 31 18 6 7 13 14 15 23 3 9 1 20-6 26 7 0 13 0 19-1 5 25 4 52-2 76 6-27 39-45 65-35 3 4 5 10 5 15 2-5 10-6 14-2 5 3 6 9 7 14 4 13 7 27 10 40 7-11 7-24 10-36 4-11 12-24 24-25 3 0 6 1 9 0 8-2 11-13 16-20 11-14 34-10 51-4-16-12-15-41 2-51 15-9 35-6 48-16 6-5 11-13 19-11-16-3-34-7-44-21z"/><path fill="#fff" d="M502 412c-18-7-39-4-54 8 2 3 5 5 8 8-5 7-15 8-23 11s-16 10-13 18c1 5 5 8 6 12 0 3-1 6-2 9-2 8 2 16 3 25 1 8-1 18-8 22 15 2 27 16 26 31 19-4 33 30 51 22 3-10 17-12 27-12 10 1 20 2 29-3 8-4 13-16 7-24 7-6 20-4 27-11 14-12-6-40 8-53 7-3 14-8 20-12-13-3-30 0-36-12-2-4-2-7-3-11-2-11-11-20-21-23-4-2-8-2-11-4-5-2-9-6-14-9s-11-4-15 1c-2 2-2 7-5 8s-5 0-7-1z"/><path fill="#101E14" fill-rule="nonzero" d="M564 454h-18c0-5-1-10-3-15-10-3-19-9-26-17-11 3-17 14-28 18-10 5-24 1-33 8 4 1 5 5 5 9 0 2-1 4-2 6-7 16-9 35-5 53 4-1 10-3 13 0s3 8 4 12c1 8 7 15 14 19 0 2 2 2 3 1s2-3 3-4c3-5 11-1 17-2 4 0 7-3 11-3 2 0 5 2 8 3 6 2 12 3 19 1-4-12 3-26 15-29-4-20 6-40 3-60z"/><path fill-rule="nonzero" d="M233 768c-10 0-18-3-23-8s-8-13-8-23c0-21 10-32 30-32 5 0 10 1 14 2s7 3 10 4v19h-19v-5c0-2 0-4-1-5-1 0-3-1-4-1-2 0-3 1-4 1-1 1-2 3-2 5v23c0 2 1 4 2 5 1 0 2 1 4 1 1 0 3-1 4-1 1-1 1-3 1-5v-6h19v20c-3 1-6 3-10 4s-9 2-13 2zM281 768c-7 0-13-2-17-6s-6-10-6-17 2-13 6-17 10-5 17-5c8 0 14 1 18 5s6 10 6 17-2 13-6 17c-5 4-10 6-18 6zm0-14c2 0 3 0 4-1 0-1 1-2 1-4v-8c0-1-1-3-1-4-1 0-2-1-4-1-1 0-2 1-3 1-1 1-1 3-1 4v8c0 2 0 3 1 4s2 1 3 1zM385 754v13h-24v-13h3v-13c0-1 0-3-1-4-1 0-2-1-3-1-3 0-5 2-5 5v13h3v13h-24v-13h3v-13c0-1 0-3-1-4 0 0-2-1-3-1-3 0-5 2-5 5v13h4v13h-25v-13h4v-18h-4v-12h21v6c4-5 9-7 14-7 3 0 6 0 8 2 2 1 3 3 4 6 2-3 4-5 7-6 2-2 5-2 8-2 4 0 8 1 10 4 2 2 3 6 3 11v16h3zM392 719v-13h15v13h-15zm-4 48v-13h3v-18h-3v-12h21v30h3v13h-24zM466 754v13h-24v-13h3v-13c0-1-1-3-1-4-1 0-2-1-4-1-3 0-4 2-4 5v13h3v13h-24v-13h3v-18h-3v-12h21v6c4-5 8-7 14-7 4 0 7 1 9 4 3 2 4 6 4 11v16h3zM491 785c-4 0-7 0-10-1-4 0-6-1-8-2v-12c5 1 10 1 14 1 3 0 5 0 7-1 1-1 2-3 2-5v-4l-5 5c-2 1-5 2-7 2-6 0-10-2-12-6-3-4-4-10-4-17s1-13 4-17c2-4 6-5 12-5 2 0 5 0 7 1l5 5v-5h21v12h-3v28c0 7-2 12-6 16-4 3-9 5-17 5zm0-31c2 0 3 0 4-1 0-1 1-2 1-4v-8c0-1-1-3-1-4-1 0-2-1-4-1-1 0-2 1-3 1-1 1-1 3-1 4v8c0 2 0 3 1 4s2 1 3 1zM566 768c-5 0-9-1-14-2-4 0-7-1-10-2v-16h17c0 2 1 3 1 4 1 0 2 1 4 1s3 0 4-1c0 0 1-1 1-2s-1-2-1-2c-1-1-2-2-4-2l-6-2c-6-3-10-5-13-8-2-3-3-7-3-12 0-6 2-11 6-14s10-5 20-5c4 0 8 1 12 2s7 2 10 3v14h-16c0-2-1-4-5-4-1 0-2 0-3 1 0 0-1 1-1 2s1 1 1 2c1 0 2 1 4 2l7 2c5 2 9 4 12 7 2 3 3 7 3 12 0 6-2 11-6 15-5 3-11 5-20 5zM618 768c-8 0-14-2-18-6s-6-10-6-17 2-13 6-17 10-5 18-5c7 0 13 1 17 5s6 10 6 17-2 13-6 17-10 6-17 6zm0-14c1 0 2 0 3-1s1-2 1-4v-8c0-1 0-3-1-4-1 0-2-1-3-1-2 0-3 1-4 1-1 1-1 3-1 4v8c0 2 0 3 1 4s2 1 4 1zM666 768c-7 0-13-2-17-6s-6-10-6-17 2-13 6-17 10-5 17-5c8 0 14 1 18 5s6 10 6 17-2 13-6 17c-5 4-10 6-18 6zm0-14c2 0 3 0 4-1s1-2 1-4v-8c0-1 0-3-1-4-1 0-2-1-4-1-1 0-2 1-3 1-1 1-1 3-1 4v8c0 2 0 3 1 4s2 1 3 1zM744 754v13h-25v-13h3v-13c0-1 0-3-1-4 0 0-1-1-3-1-3 0-5 2-5 5v13h4v13h-25v-13h4v-18h-4v-12h21v6c4-5 9-7 14-7s8 1 10 4c2 2 3 6 3 11v16h4zM750 750l-4-40v-4h23v4l-3 40h-16zm-1 17v-13h18v13h-18zM776 750l-3-40v-4h23v4l-4 40h-16zm-1 17v-13h18v13h-18zM802 750l-3-40v-4h23v4l-4 40h-16zm0 17v-13h17v13h-17z"/></svg>