<svg xmlns="http://www.w3.org/2000/svg" xml:space="preserve" width="1024" height="1024" fill-rule="evenodd" clip-rule="evenodd" image-rendering="optimizeQuality" shape-rendering="geometricPrecision" text-rendering="geometricPrecision"><path fill="#fff" d="M409 308c72 17 140 15 205 1l21-6v-89c0-44-216-43-244 0-4 6-4 24-3 43 1 23 3 46 3 46 6 2 12 4 18 5zm-17 67c-10 3-16 21-13 42 2 12 8 29 19 34 4 21 10 40 20 57l-67 19 12 39c-8 3-118 8-124 14-65 68 23 294 23 294h499s86-223 27-294c-6-7-120-11-128-14l12-39-69-16c5-9 10-18 13-29l63-6-2-22-54 6c1-3 1-6 2-9 10-5 16-22 18-34 2-9 1-17 0-24-2-9-7-16-13-18l1-20c-7 1-14 2-21 2-68 8-145 8-212-2-2 0-4 0-6-1v21zm-36 319c-5-22 11-25 11-25s-9 7-5 23c5 25-4 26-4 26s1-10-2-24zm20-21c6-22-11-25-11-25s9 7 6 23c-6 25 3 26 3 26s-1-10 2-24zm132 62c0 4 3 6 6 6s6-3 6-6c0-4-3-6-7-6-3 0-6 3-5 6zm0-77c0 3 3 5 6 5s6-3 6-6c0-4-3-6-7-6-3 0-6 3-5 7zm-145 91c6 0 10 5 10 10 0 3-1 5-2 7-2 2-4 3-8 3-3 0-5-1-7-3s-2-4-2-7c0-5 4-10 9-10zm18 26c3-2 5-6 5-10v-18c0-7-6-12-13-12h-19c-7 0-13 5-13 12v18c0 4 2 8 5 10v17c0 6 5 11 10 11h15c5 0 10-5 10-11v-17zm127-78c0 3 3 5 6 5s6-3 6-6c0-4-3-6-7-6-3 0-6 3-5 7zm-124 79v19c0 6-5 12-12 12h-2v16h-13v-16h-2c-7 0-12-6-12-12v-19c-3-3-5-6-5-11v-20c0-8 7-14 15-14h7v-6h7v6h7c8 0 15 6 15 14v20c0 4-2 8-5 11zm298-359c-1 25 8 25 8 25s-3-10-2-24c2-23-15-23-15-23s10 5 9 22zm-1 36 2 22 17-1-3-22-16 1zm-239 89c19 20 43 31 69 31 28 0 53-13 73-35l-67 264-75-260zm63 78c3 1 6 3 9 3 4 0 6-1 9-3 5 6 13 9 22 9 16 0 13-11 13-24s3-22-13-22c-9 0-17 4-22 9-3-1-5-2-9-2-3 0-6 1-9 3-5-6-13-10-23-10-15 0-12 9-12 22s-3 24 12 24c10 0 18-4 23-9zM391 346c69 14 170 13 240 0 34-6 61-15 75-27 12-11-7-32-29-31-20 0-41 23-41 23l-12 3c-75 17-151 18-226 0-4-1-8-2-11-3-1-25-94-37-70 1 10 15 38 27 74 34z"/></svg>