<svg xmlns="http://www.w3.org/2000/svg" xml:space="preserve" width="1024" height="1024" fill-rule="evenodd" clip-rule="evenodd" image-rendering="optimizeQuality" shape-rendering="geometricPrecision" text-rendering="geometricPrecision"><path fill="#fff" d="M512 874H167c-21-79 35-176 122-209 17-6 68-20 79-29-6-19-18-42-26-63-32-81-44-135-16-219 38-116 112-172 186-173 74 1 148 57 186 173 28 84 16 138-16 219-8 21-20 44-26 63 7 6 29 13 49 20L535 826c-7 7-7 18 0 24l11 11c7 7 18 7 24 0l83-91 4-3c12-8 28-7 39 3 2 2 4 3 6 3v33c0 5 4 9 9 10 5 0 10-5 10-10v-29c0-5 4-9 9-9 6 0 10 4 10 9v5c0 5 4 9 9 10 6 0 10-4 10-10v-65c8-9 14-18 21-28 60 44 94 121 77 185H512zm108-393c-5 0-9 3-9 8v6c0 19-15 34-34 34-4 0-8 3-8 7l-11 98-1 1c0 12-7 23-16 31-10 8-22 12-34 10-22-2-39-20-41-42l-11-98c0-4-4-7-8-7-19 0-34-15-34-34v-6c0-5-4-8-9-8-20 0-37-17-37-38s17-38 37-38c5 0 9-3 9-8s-4-8-9-8h-8v-52c0-64 52-116 116-116s116 52 116 116v52h-8c-5 0-9 3-9 8s4 8 9 8c20 0 37 17 37 38s-17 38-37 38zm0-65c-26 0-47-21-47-47 0-14-12-26-27-26s-27 12-27 26c0 56 45 101 101 101 14 0 26-12 26-27s-12-27-26-27zm-142-84c11 0 21 4 28 12 1 2 4 3 6 3s5-1 6-3c7-8 17-12 28-12 5 0 8-4 8-9 0-4-3-8-8-8-12 0-24 5-34 12-10-7-22-12-34-12-5 0-8 4-8 8 0 5 3 9 8 9zm27 37c0-14-12-26-27-26s-27 12-27 26c0 26-21 47-47 47-14 0-26 12-26 27s12 27 26 27c56 0 101-45 101-101zm7 117c-13 0-25 6-34 15-8 9-12 22-11 35l10 96c2 18 17 32 35 32s33-14 35-32l10-96c1-13-3-26-11-35-9-9-21-15-34-15zm0-79c-3 0-6 1-7 4l-19 32c-5 8-5 18 0 26s13 12 22 12h8c9 0 17-4 22-12s5-18 0-26l-19-32c-1-3-4-4-7-4zm135 357-83 91c-3 4-9 4-12 0l-11-11c-4-3-4-9 0-12l87-87 183-183c-3 63-29 122-73 166l-36 36c-14-13-35-15-50-3l-5 3zm-3-369v-58c0-73-59-132-132-132s-132 59-132 132v58c-18 9-30 27-30 48 0 27 20 50 46 54 1 24 20 44 43 48l11 90c2 30 25 55 55 58h7c14 0 28-5 39-14 13-11 22-26 23-43l11-91c23-4 42-24 43-48 26-4 46-27 46-54 0-21-12-39-30-48zm77 454c0 5-4 10-10 10-5 0-9-5-9-10s9-19 9-19 10 14 10 19zm43-19c0 5-4 9-10 9-5 0-9-4-9-9s9-19 9-19 10 14 10 19z"/></svg>