<svg xmlns="http://www.w3.org/2000/svg" xml:space="preserve" width="512" height="512" fill-rule="evenodd" clip-rule="evenodd" image-rendering="optimizeQuality" shape-rendering="geometricPrecision" text-rendering="geometricPrecision"><path fill="none" d="M0 0h512v512H0z"/><g fill="#333"><path stroke="#333" stroke-width="2.999" d="M313 401c16-2 15-1 32 0-2 6-11 17-14 20-25 28-58 26-94 26-20 0-48-2-69-5-3-1-19-4-21-3 7 1 24 6 33 8 39 8 77 16 117 16 20 0 41-5 48-24 6-15 5-23 3-37 20 4 26 10 29 11-1-3-3-6-5-9-8-9-15-15-30-15-6 0-12 1-17 3-4 2-11 6-12 9zM261 338c15 1 49-23 60-32 14-11 39-33 66-23-1-3-5-9-7-12s-4-8-6-11c-12-2-28 7-36 12-4 3-13 10-17 13l-34 32-3 3c-1 1-2 1-3 2l-13 11c-1 1-7 5-7 5zM222 349l-16-12c-12-9-45-33-59-21-5 3-4 13 4 18 9 5 25-4 61 11 4 1 7 3 10 4zM258 475c5 21 41 20 55 6 1-2 5-5 5-7-22 7-39 5-60 1z"/><path d="M88 314c109 15 274-28 365-83 17-11 44-30 55-48 4-6 5-10 3-19-8-12-24-15-39-15-14 1-35 4-48 6-5 8-3 11-11 17-34 25-97 48-138 58-41 9-104 17-148 10-21-3-27-7-26-30-23 6-101 28-101 58 0 36 64 43 88 46zM167 49c7-1 46-11 50-13-10-3-52-11-65 0-11 8-3 29-22 59-8 14-14 47-17 64-3 16-7 15 38 19 42 4 83 3 124-4 48-9 96-26 132-46-5-12-9-21-12-35-2-10-5-32-8-39-14-37-73-35-108-31-21 2-65 26-103 28-7 0-7-1-9-2z"/></g></svg>